# xmcd
#
# Track frame offsets: 
#        150
#        23317
#        43200
#        58200
#        76802
#        97077
#        114580
#        142430
#        161937
#        183537
#        207710
#
# Disc length: 3162 seconds
#
# Revision: 3
# Processed by: cddbd v1.5.2PL0 Copyright (c) Steve Scherf et al.
# Submitted via: ExactAudioCopy v0.95b3
#
DISCID=a70c580b
DTITLE=Tift Merritt - Bramble Rose
DYEAR=2002
DGENRE=Country
TTITLE0=Trouble Over Me
TTITLE1=Virginia, No One Can Warn You
TTITLE2=Neighborhood
TTITLE3=Bird Of Freedom
TTITLE4=Bramble Rose
TTITLE5=I Know Him Too
TTITLE6=Sunday
TTITLE7=Supposed To Make You Happy
TTITLE8=Diamond Shoes
TTITLE9=Are You Still In Love With Me?
TTITLE10=When I Cross Over
EXTD=
EXTT0=
EXTT1=
EXTT2=
EXTT3=
EXTT4=
EXTT5=
EXTT6=
EXTT7=
EXTT8=
EXTT9=
EXTT10=
PLAYORDER=
